<?xml version="1.0" encoding="UTF-8" standalone="no"?>
<!-- Generator: Gravit.io -->
<svg xmlns="http://www.w3.org/2000/svg" xmlns:xlink="http://www.w3.org/1999/xlink" style="isolation:isolate"
     viewBox="0 0 700 150" width="700pt" height="150pt">
        <path d=" M 398 60 C 400.313 60.383 404.188 61.875 404 66 C 403.563 69.562 398.313 70.688 395 70 C 390.063 68.563 389.055 67.58 384 67 C 379.368 66.267 376.313 68.438 372.525 68.386 C 368.938 68.313 367.833 66.875 367 65 C 366.813 63.938 366.313 58.438 370.899 57.429 C 374.688 57.188 381.563 63.312 387 61.382 C 389.688 60.313 392.667 59.571 398 60 Z "
              fill="rgb(145,198,195)"/>
        <path d=" M 357.922 66.929 C 355.375 68.25 351.75 68.625 350 66 C 348.875 64.375 348.501 62.342 350 60 C 351.5 57.875 353.557 56.586 357.922 58.71 C 361.293 60.429 364.81 59.992 368.094 58.71 C 372.001 57.02 375.684 55.978 377 58.143 C 379.797 63.265 376.986 67.027 372.941 66.929 C 370.361 66.594 367.576 61.055 365 63 C 364.162 63.608 358.811 66.146 357.922 66.929 Z "
              fill="rgb(208,234,232)"/>
</svg>
