<svg id="loading-logo" xmlns="http://www.w3.org/2000/svg" xmlns:xlink="http://www.w3.org/1999/xlink"
     style="isolation:isolate"
     viewBox="0 0 700 150">
    <path id="right-blob"
          d=" M 471.787 24.035 C 509.762 10.271 615.705 5.682 667.612 49.061 C 689.162 70.533 704.548 107.037 673.265 125.39 C 613.417 156.982 516.435 153.752 456.293 125.39 C 410.129 102.768 359.606 85.348 304.395 90.354 C 238.142 97.819 200.491 102.841 187.634 80.343 C 162.108 27.776 195.686 -3.912 257.898 5.265 C 296.625 13.606 356.687 56.568 403.248 44.055 C 418.305 40.205 455.333 29.373 471.787 24.035 Z "
          fill="rgb(145,198,195)"/>
    <path id="left-blob"
          d=" M 202.048 131.294 C 174.033 142.522 95.875 146.264 57.58 110.88 C 41.682 93.365 30.332 63.589 53.409 48.619 C 97.563 22.85 169.109 25.484 213.48 48.619 C 247.537 67.072 284.809 81.28 325.541 77.197 C 374.419 71.109 402.195 67.011 411.68 85.363 C 430.512 128.242 405.74 154.089 359.844 146.605 C 331.274 139.8 286.963 104.756 252.613 114.963 C 241.505 118.104 214.188 126.939 202.048 131.294 Z "
          fill="rgb(208,234,232)"/>
</svg>
