<?xml version="1.0" encoding="UTF-8" standalone="no"?>
<svg xmlns="http://www.w3.org/2000/svg" xmlns:xlink="http://www.w3.org/1999/xlink"
     viewBox="0 0 150 150">
    <path d=" M 69.431 23.486 C 69.609 14.069 63.066 7.908 52.239 7.405 C 44.516 7.196 40.495 9.08 34.864 12.765 C 31.701 15.152 28.819 17.696 27.889 23.486 C 27.513 31.139 30.206 36.959 35.93 40.907 C 41.283 44.566 37.114 49.227 33.25 47.607 C 24.33 45.094 19.526 46.79 17.169 52.967 C 14.985 60.275 15.905 65.662 22.529 69.048 C 27.345 71.687 33.866 72.419 39.123 71.728 C 51.547 70.405 60.488 64.096 61.391 58.327 C 63.621 50.988 58.892 42.515 50.67 38.227 C 46.279 36.641 48.351 31.766 52.239 32.866 C 54.474 33.098 56.608 34.263 57.371 34.207 C 64.818 33.857 68.851 30.296 69.431 23.486 Z "
          fill="none" stroke-width="5" stroke="rgb(0,0,0)"/>
    <path d=" M 17.286 126.653 C 17.107 136.071 23.651 142.232 34.477 142.734 C 42.201 142.945 46.221 141.059 51.852 137.374 C 55.016 134.987 57.897 132.444 58.827 126.653 C 59.204 119.002 56.51 113.181 50.787 109.233 C 45.432 105.573 49.602 100.912 53.467 102.532 C 62.387 105.045 67.191 103.351 69.548 97.172 C 71.732 89.865 70.811 84.478 64.187 81.091 C 59.371 78.454 52.851 77.72 47.594 78.411 C 35.17 79.734 26.229 86.044 25.326 91.812 C 23.096 99.151 27.825 107.626 36.046 111.913 C 40.438 113.499 38.366 118.373 34.477 117.273 C 32.243 117.041 30.109 115.878 29.346 115.933 C 21.898 116.284 17.864 119.843 17.286 126.653 Z "
          fill="none" stroke-width="5" stroke="rgb(0,0,0)"/>
    <path d=" M 97.572 7.404 C 83.22 9.319 75.971 19.607 75.783 38.226 C 76.264 59.056 84.881 70.237 101.592 71.727 C 123.21 72.208 135.325 63.742 133.754 42.246 C 131.984 17.916 117.246 5.716 97.572 7.404 Z "
          fill="none" stroke-width="5" stroke="rgb(0,0,0)"/>
    <path d=" M 80.152 85.128 C 83.223 75.86 97.294 75.381 100.253 86.468 C 101.027 90.697 100.399 97.501 98.913 102.548 C 95.609 120.977 113.641 118.806 110.973 102.548 C 109.069 96.013 106.907 91.063 108.293 86.468 C 113.162 75.428 125.223 74.766 127.054 86.468 C 129.684 101.262 132.698 116.921 127.054 130.69 C 123.674 136.932 115.647 140.072 102.933 140.07 C 84.275 139.802 77.371 131.586 77.472 109.249 C 77.45 100.857 78.15 93.281 80.152 85.128 Z "
          fill="none" stroke-width="5" stroke="rgb(0,0,0)"/>
</svg>
